<svg id="Layer_1" data-name="Layer 1" xmlns="http://www.w3.org/2000/svg" viewBox="0 0 365.49 150.88"><defs><style>.cls-1{fill:#fff;}.cls-2{fill:none;stroke:#d71920;stroke-width:4.6px;}.cls-2,.cls-4{stroke-miterlimit:10;}.cls-3{fill:#d71920;}.cls-4{font-size:21px;fill:#231f20;stroke:#231f20;stroke-width:0.2px;font-family:Avenir LT Std;}.cls-5{letter-spacing:-1px;}</style></defs><title>Logo Font type</title><path class="cls-1" d="M39.78,122.22h304.7l28.1-29.54V44.28l-28.1-29.55H39.78L11.69,44.28v48.4Z" transform="translate(-9.39 -12.43)"/><path class="cls-2" d="M39.78,122.22h304.7l28.1-29.54V44.28l-28.1-29.55H39.78L11.69,44.28v48.4Z" transform="translate(-9.39 -12.43)"/><path class="cls-3" d="M338.76,28.05L359.25,49.6V87.36L338.76,108.9H45.49L25,87.36V49.6L45.49,28.05H338.76m0.77-1.8H44.72l-0.53.56L23.7,48.36l-0.5.52v39.2l0.5,0.52,20.48,21.54,0.53,0.56H339.54l0.53-.56L360.56,88.6l0.49-.52V48.88l-0.49-.52L340.07,26.81l-0.53-.56h0Z" transform="translate(-9.39 -12.43)"/><path class="cls-3" d="M53.35,89.5c0,1.58-3.17,3.45-4.3,3.45s-2.67.66-2.67,2.11,3.74,1.08,3.74,1.08H90.25c2.1,0,2.51-1,2.51-1s1-7.36,1.52-9.35,0.79-2.64-.84-3.71C91.59,80.93,89.59,84,89.59,84S86,93.33,75.53,92.65c0,0-6.72-.14-6.72-5.21V49.14s0.55-3.71,3.16-3.71,4.8-1.09,4.8-2.2-0.14-2.06-2.34-2.06S52.75,42,49.87,41.32c0,0-3.86-.41-3.86,1.65s2.47,2.2,3.71,2.2,3.85,0.68,3.85,3.43-0.23,39.54-.23,40.9" transform="translate(-9.39 -12.43)"/><path class="cls-3" d="M127.15,95.12c-0.18,1.36-2.34,1.23-2.34,1.23C117,95.53,100,96.14,100,96.14s-3.74.37-3.74-1.08,1.54-2.11,2.67-2.11,4.84-1.87,4.84-3.45c0-1.36.23-38.16,0.23-40.9s-2.61-3.43-3.85-3.43S96.5,45,96.5,43s3.84-1.65,3.84-1.65c2.88,0.69,21.84-.14,24-0.14s2.33,1,2.33,2.06-2.2,2.2-4.8,2.2-3.16,3.71-3.16,3.71v38.3S118,91.93,124,92.75c0,0,3.47-.42,3.11,2.36" transform="translate(-9.39 -12.43)"/><path class="cls-3" d="M217.55,95.12c-0.18,1.36-2.34,1.23-2.34,1.23-7.83-.82-23.13-0.21-23.13-0.21s-3.74.37-3.74-1.08,1.55-2.11,2.66-2.11,4.3-1.87,4.3-3.45c0-1.36.23-38.16,0.23-40.9s-2.6-3.43-3.84-3.43S188,45,188,43s3.85-1.65,3.85-1.65c2.87,0.69,21.27-.14,23.48-0.14s2.33,1,2.33,2.06-2.2,2.2-4.81,2.2-3.15,3.71-3.15,3.71v38.3s-1.24,4.49,4.77,5.31c0,0,3.46-.42,3.1,2.36" transform="translate(-9.39 -12.43)"/><path class="cls-3" d="M162.56,78s9.33-22.52,11.34-28-3.85-5.39-4.57-5.31a1.94,1.94,0,0,1-2.38-2c0-.73,1.15-1.76,2.93-1.47,1.49,0.25,12.28.54,15.08-.23,1.08-.3,2.86.14,2.49,1.88-0.48,2.17-3.48,2.07-4.4,2-1.95-.1-2.93,2.56-2.93,2.56s-19.21,46.49-20.49,48.5-2.83,1.92-2.83,1.92c-1.2,0-2.3-2.29-2.3-2.29s-19.94-45-21-47.76S130.52,45,128.88,45a2.18,2.18,0,0,1-1.74-2.47c0.07-1.75,2.38-1.4,2.38-1.4,4.07,0.36,4,.36,24.07-0.16,1.83-.56,3.54.87,2.93,2.38-0.36.86-1.83,1.65-3.84,1.46,0,0-4,0-3.17,2.41S162.56,78,162.56,78" transform="translate(-9.39 -12.43)"/><path class="cls-3" d="M327.08,43.56A3.59,3.59,0,0,0,324.52,41s-25.44-8.05-41.73,9.33-2.2,37.16,4.57,40.44,21.78,10.79,41.37,1.28A4.6,4.6,0,0,0,332,87.3c-0.18-3.85-2-14.28.72-14.65s5.5-.92,5.5-2.39a2.47,2.47,0,0,0-3.11-2.37c-1.83.37-17.75,1.1-24,.55,0,0-2.75-.55-3.12,1.47-0.23,1.27,1.1,2.56,3.3,2.75s5.49,0,5.68,3.11,2.19,16.1-2.75,16.65-22.15,2.38-22.51-25.8c0,0-1.46-23.06,19.77-23.8,0,0,4.76-1.46,11,7.14,0,0,1.1,3.66,4,3.3,0,0,2.39.18,1.83-2.56s-1.28-7.13-1.28-7.13" transform="translate(-9.39 -12.43)"/><path class="cls-3" d="M237.58,40.81h-17S218,41,218.2,42.65s0.73,1.83,2.37,1.83,4.57,0.92,4.57,3.3V88.58s-0.92,2.74-2.56,3.29-4.39.74-4.39,1.83-0.74,2,1.64,2.2,15,0,16.28.18,2.38-.37,2.57-1.29a2.21,2.21,0,0,0-2.2-2.74c-2,0-6.77.19-6.77-3.48V52.16l36.06,44.65a4.62,4.62,0,0,0,2.74.91c1.65,0,1.83-.54,2-2.19s0-47.2,0-47.2,0.92-4.22,3.11-4,5.31-.18,5.31-1.46-0.55-2.56-2.92-2.2-14.28.18-15.76,0-3,.73-3.09,1.46c-0.14,1.53,1.08,2.19,2.56,2.19s6,0.74,6.22,4.4,0,25.8,0,25.8l-25.31-32.2a4.51,4.51,0,0,0-3.06-1.48" transform="translate(-9.39 -12.43)"/><text class="cls-4" transform="translate(51.86 135.95)">REA<tspan class="cls-5" x="40.45" y="0">L</tspan><tspan x="49.41" y="0">TY INC., BROKERAGE</tspan></text></svg>